<svg xmlns="http://www.w3.org/2000/svg" fill="none" viewBox="0 0 321 344"><path fill="#fff" d="M171.1 43c-11.4 5.6-26-1.2-25.4-16.6.6-13 14-22.2 25.4-16.5-13.5 6-13.5 27.1 0 33Z"/><path fill="#AB5F44" d="M227.5 24s-11.7-21.6-37-21.6c-21.6 0-27.8 11-32.6 18-4.8 7-16.4 6-25.5 7.2-9.1 1.1-20.6 4.6-26.3 18.6-5.7 14-5 24.9-13 33.5-8 8.6-38.8-.7-57.2 26.5-18.5 27.2-4.4 42-10.3 57C19.6 178 7.8 186.3.5 175c0 0-.5 26.7 24.9 22.5 0 0 15.3 20.3 44.2 5.6 0 0 58.2 19.6 96.3.3 0 0 52.7 19 78.5.9 0 0 36.7 15.1 51.8-.7 0 0 7 3.2 17.1.2 10-3 9.1-22 0-22.5 0 0 5.5 11.1-6.8 9.7-10-1.1-8.4-27.6-13-44.8a77.7 77.7 0 0 0-31.8-41.9c-12.7-7.8-15.5-21.4-14.1-34 1.2-10.9-1-45.5-20-46.2Z"/><path fill="#AB5F44" d="M224.8 24.5c-7-7.7-13.4-17-23.7-20.5C189.3.7 175.6 0 164.6 6c-6.8 4-11.6 10.6-18.5 14.4-9.3 5.2-20.3 4.6-30.1 8-6.5 2.1-11.6 7-13.8 13.5-2.5 6.5-3.2 13.6-5.4 20.3-4.1 15.7-19.4 19.7-33 23-34.5 7-41.9 43.7-42.7 74.4.3 20.1-17.4 20.4-16.6 9.4.1-.3.6-.1.5.2-.2.8-.2 1.6.1 2.4a6 6 0 0 0 5.7 4c7.6-.7 9.2-9.7 9.2-16 .5-27.1 5.7-61.2 33.3-73 14.9-6.1 36.6-6 41.5-25.1 2.2-6.7 2.9-13.8 5.4-20.4 2.4-7 8.2-12.5 15.1-14.7 9.8-3.4 20.6-2.7 29.8-7.7 7.2-4 12.4-11 19.8-14.7a50.2 50.2 0 0 1 37.2-.8 41.7 41.7 0 0 1 16.4 13l6.7 8c.2.2-.2.5-.3.3Z"/><path fill="#853B29" d="M209.2 59.3a33 33 0 0 0 15.6-29.8c0-.3.4-.4.4 0a28 28 0 0 1-7.9 25.7c-.5 1-8.5 6-8.1 4.1Z"/><path fill="#853B29" d="M217 54.5c6.5 5.2 10.8 13 12.1 21.3 2 11-4 22.1-.5 33 3 10.5 14.6 9.7 23.2 11.4 11.3 2.7 19 13.6 21.3 24.7 1.7 8.2 1.3 16.7.3 25-.7 5.6-1.8 11.4-.7 17.1 1 7.2 8.5 14.5 15.8 11.3.2-.2.5.3.2.4-7 3.6-15.1-3-16.9-10-2.2-8.1.1-16.6.5-24.8a65 65 0 0 0-1.1-18.6c-2-8.6-7-17-14.8-21-6.8-3.8-15-2.1-22-5.6-13.1-7-7.8-23.9-6.4-35.6.7-8.6-2-17.4-7.3-24-.6-1.3-5-4.8-3.6-4.6ZM223.4 46c9.5 2 16.4 12.4 15.3 22 0 .3-.5.3-.5 0a28 28 0 0 0-9.4-17.6c-.3-.8-6.9-4.4-5.4-4.4ZM225.4 36.2c4-2.6 10-.8 12.6 3.3.1.2-.2.5-.4.3-3.7-2.2-7.8-3-12-3.2-.3 0-.4-.3-.2-.4ZM216.2 53.3a25 25 0 0 0-30.5-14.7c-4.4 1.5-8.2 4.7-12.4 6.9-3.6 2-8 2.7-12 1.4-5.4-1.4-10-4.8-15.3-6.4-7.6-2.6-15 2.4-19 8.8-8.4 14-7.1 31.8-23 41.5-8 5.7-18.2 5.8-27.6 7-17 2-31.3 17-33 34.4-1.5 12.8 1.3 25.7 0 38.5-.8 8.8-4 17.9-10.8 23.8-1.6 1.5-7 4.8-6.3 3.3 11.9-5.3 16.3-19.6 16.2-32 0-18.8-5-40.7 8.7-56.1 13.4-16 26-12.8 43.5-16.8 24-8.2 20.2-27.1 30.7-44.8 4.4-7 12.9-12.4 21.1-9.4 4.6 1.3 8.7 4.2 13 5.9 5.9 2.8 12.2.6 17.2-2.8 7.9-6 18.6-7.6 27.4-2.8a24.6 24.6 0 0 1 12.5 14.1c.1.3-.3.5-.4.2ZM155 24.4c13.4 7.8 25.8-6.6 39-8 14.4-2 29 9 31 23.6 0 .3-.4.4-.5.1a28 28 0 0 0-30.3-21.5c-11.8 1.5-22.3 12.3-34.8 8.7-.8 0-6-2.7-4.4-2.9Z"/><path fill="#853B29" d="M140.4 76.1a39.7 39.7 0 0 1-24 22c-6.9 2.3-14.4 2-20.3 6.4-5.7 4.1-8.4 12-6.2 18.8 1 3.5 3.1 6.6 5.9 8.8 0 .1.1.3 0 .4-3.2-1.4-5.7-5.4-7-8.8-2.8-7.3 0-16.1 6-20.8 9.2-6.5 21.5-4.6 30.6-11.3 5-3.2 9.2-7.4 12.5-12.2l1.4-2.3.7-1.2c.2-.2.6 0 .4.2ZM240.2 84.4a28.3 28.3 0 0 0 15.2 29.5c15.3 6.1 29.4 5.7 32.6 26.2 2.2 10.9-2.7 21.5-1.1 32.3 1 5.3 5.3 9.8 10.5 10.3-5.4 1.3-10.5-5-11.7-10-1.3-5.4-.3-11 .4-16.4 1.2-10.1 1-22-6.5-29.7-7.6-7.3-19.2-6.8-27.8-12.5-8.9-5.7-14-17-12.4-27.7l.3-2c.1-.3.5-.2.5 0Z"/><path fill="#AB5F44" d="M227.3 25.7c10.3-1.7 19.4 7 22.8 16.3 3.7 10 3 21 4.4 31.3a36 36 0 0 0 9 21.6c5.5 5.2 12.9 8 19 12.4a54.9 54.9 0 0 1 21.6 50.5c-.7 5.8-3.4 12.4.3 17.5a5.6 5.6 0 0 0 9.7-.6c-.4 4.7-8 5-10.3 1.2-5.3-7.2 0-16.2-.8-24.3a54.2 54.2 0 0 0-30.7-48c-12.3-6-18.4-16.4-19.7-30-1.5-12-.1-24.9-6-35.8-3.8-6.9-11.1-12.7-19.2-11.7-.3 0-.4-.4 0-.4Z"/><path fill="#F33" d="M90.6 129.3s-30.8-11.6-54.5 39.4c-23.7 51.1-47 167.6-.9 173.4l66-112.4-10.6-100.4ZM223.7 129.3s30.7-11.6 54.5 39.4c23.7 51.1 47 167.6.8 173.4l-65.9-112.4 10.6-100.4Z"/><path fill="#97A2DB" d="M67.8 223.6h177.4V197H67.8v26.6Z"/><path fill="#F33" d="M114.3 125.3s8.7-26.4 19.7-17.5c11 9 9.7 11.2 23.4 13 13.7 1.8 27.5-5.8 33-7.2 5.4-1.3 10-4 11.9 13.5 0 0-83.4 2.7-88-1.8Z"/><path fill="#FFA79D" d="M140 82.2s-5.6-4-4.9-13.5c.7-9.5 4.6-10.9 4.6-10.9l6.3 4.5-6 20ZM195.3 113.8s9.9 4.7 17.6-4c7.8-8.5.7-15.7-5.7-12.7s-11.8 16.7-11.8 16.7Z"/><path fill="#FFBEAE" d="M209.3 59.5S203 71.1 192.8 69c-10.2-2.1-17-15.7-23.2-11.5-6.2 4.1-17.8 10.8-23.6 4.8 0 0-27 56.2 5.8 68.4 32.8 12.2 57.5-35.2 57.5-35.2s2.7-5 1.3-12.6c-1.3-7.7-4-14.3-1.3-23.4Z"/><path fill="#F8938D" d="M176 80.4s-4.6 7.6-9 9.5c-7 3-8.2 2.3-10 3.5-2 1.2 3.1 4.8 5.6 6.2 1 .6 2.3.4 3-.5A41 41 0 0 0 176 80.4Z"/><path fill="#1F191A" d="M157 66.3c-.5 3.4-1.3 6.7-.4 10 2.8 5.1 9.6.5 13-2.2 2 0-4 5.4-4.8 5.6-5.5 3.5-12.4.4-11-6.7 0-1 2.4-8.4 3.2-6.7Z"/><path fill="#1F191A" d="M151 70.9c1.3-.8 4-.4 4.8.7-1 .8-4.6.6-4.7-.7ZM151 77c.8-1.1 3.5-1.6 4.3-.7-.6 1-3.8 1.9-4.3.7ZM198.5 92.6c-2.9 1.8-5.5 4-8.8 4.4-5.8-.6-4.3-8.9-3.2-13-.8-2-3.3 5.7-3.2 6.6-1 6.5 4.5 11.8 10.4 7.7.9-.3 6.6-5.5 4.8-5.7Z"/><path fill="#1F191A" d="M196.6 100c.3-1.4-1.1-3.9-2.4-4-.4 1 1.2 4.5 2.4 4ZM191.2 102.5c.7-1.2 0-3.9-1.1-4.3-.6 1-.2 4.3 1 4.3Z"/><path fill="#AB5F44" d="M158.6 63.4s5.2-1 9 1.7c3.7 2.8 6.8 6 8.1 3.5 1.4-2.4-9.9-12.2-17-5.2ZM202.5 90.9s-1.3-5.2-5.4-7.5c-4-2.3-8.1-3.8-6.6-6 1.6-2.4 15.1 3.9 12 13.5Z"/><path fill="#FB8F89" d="M151.5 106.2s4.8-1 9.4 1.4c4.6 2.3 7.5 4.6 7.5 4.6s-6.4 7.5-12 4.7c-5.8-2.8-4.9-10.7-4.9-10.7Z"/><path fill="#C05F5A" d="M150.6 103.3c3 9 13.2 10.3 21.2 8.5.2 0 .3.3 0 .3-5 2-11.2 2.6-16.1-.3-3-1.8-5-5-5.5-8.4 0-.2.3-.2.4 0Z"/><path fill="#6E646D" d="M242.6 308.7H70.4v-26.6h172.2v26.6Z"/><path fill="#1D1D1D" d="M118.9 295.3c17-5.2 59-5.2 76 0-17 5.2-59 5.2-76 0Zm-3 0c2.2 6.7 30.3 5.8 41 6.4 10.8-.6 38.9.3 41-6.4-.2-8.8-82-8.7-82 0ZM92.5 308.7h-6.3v-26.6h6.3v26.6ZM217.8 308.7h-6.3v-26.6h6.3v26.6Z"/><path fill="#505050" d="M240 143.8H83.4v-18.6H240v18.6Z"/><path fill="#262626" d="M99 143.8h-2.5v-18.6H99v18.6Z"/><path fill="#fff" d="M104.3 143.8h-2.6v-18.6h2.6v18.6ZM221.8 143.8H219v-18.6h2.7v18.6Z"/><path fill="#262626" d="M227 143.8h-2.6v-18.6h2.6v18.6ZM177.4 134.5c0 2.2-8.8 4-19.6 4s-19.6-1.8-19.6-4 8.8-4 19.6-4 19.6 1.8 19.6 4Z"/><path fill="#FFCC5C" d="M242.6 282.1H70.4v-31.9h172.2v32Z"/><path fill="#CE691E" d="M117.8 274c-2.2-2.7 0-7 3-8 3.2-1.2 6.6-.1 9.4 1.3 3 1.6 6 3.9 9.4 4.2 4.5.8 8.1-4.2 5.5-8-4-5.7-10.3.5-5.1 2.5 1 .9-1.7.3-1.8-.3-4.5-7.4 9.3-8.3 9.5.6.2 6.4-7.1 8.8-12 6.3-3.3-1.4-6.2-4-9.5-5-4-2-10.3 1.4-8 6.2.1.3-.2.5-.4.3ZM193.4 274c2.2-2.7 0-7-3-8-3.2-1.2-6.6-.1-9.4 1.3-3 1.6-5.9 3.9-9.4 4.2-4.5.8-8.1-4.2-5.4-8 4-5.7 10.2.5 5 2.5-1 .9 1.7.3 1.8-.3 4.5-7.4-9.2-8.3-9.5.6-.2 6.4 7.1 8.8 12 6.3 3.3-1.4 6.3-4 9.5-5 4-2 10.3 1.4 8 6.2 0 .3.2.5.4.3Z"/><path fill="#fff" d="M159 267.2c0 1.8-1.3 3.2-3 3.2a3.2 3.2 0 0 1-3.2-3.2c0-1.7 1.4-3.2 3.1-3.2 1.8 0 3.2 1.5 3.2 3.2Z"/><path fill="#F4A432" d="M113.6 282.1h-2v-31.9h2v32ZM199.6 282.1h-2v-31.9h2v32Z"/><path fill="#505050" d="M250.5 250.2H57.3v-26.6h193.2v26.6Z"/><path fill="#262626" d="M66.4 250.2h-4.6v-26.6h4.6v26.6ZM245.8 250.2h-4.6v-26.6h4.6v26.6ZM154.3 230.8c-9.8 0-19 .8-26 2.3-8 1.8-10 3.8-10 4.7 0 1 2 3 10 4.7 7 1.5 16.2 2.4 26 2.4s19-.9 26-2.4c8-1.7 10-3.7 10-4.7 0-.9-2-3-10-4.7-7-1.5-16.2-2.3-26-2.3Zm0 16.1c-10 0-19.4-.8-26.4-2.4-7.8-1.6-11.7-3.9-11.7-6.7 0-2.7 4-5 11.7-6.7 7-1.5 16.4-2.4 26.4-2.4s19.4.9 26.4 2.4c7.8 1.7 11.7 4 11.7 6.7 0 2.8-4 5-11.7 6.7-7 1.6-16.4 2.4-26.4 2.4Z"/><path fill="#6874C2" d="M237.4 197H75.6v-34.5h161.8V197Z"/><path fill="#4E5FA7" d="M97.2 197h-6.6v-34.5h6.6V197ZM86.7 197H80v-34.5h6.6V197ZM221.6 197H215v-34.5h6.6V197ZM232.1 197h-6.5v-34.5h6.5V197Z"/><path fill="#384B8A" d="M183.1 178.7c0 3.2-11.6 5.7-26 5.7s-26-2.5-26-5.7c0-3.1 11.6-5.7 26-5.7s26 2.6 26 5.7Z"/><path fill="#FFBEAE" d="m104.9 242.9-20-11.7S83.4 219 81.6 212c-1.8-7-10.6-15.3-8.8-18.4 1.8-3.1 11.4 1.1 16.7 14.8 0 0 11.7-19.7 14-26.7 2.5-7 4.5-13.2 6.9-13 2.4.3-.5 14.8-.5 14.8s4.7-13.2 7.3-12.5c2.6.7 0 14.5-.4 15.9-.5 1.3 5.2-14.8 8.3-13.5 3 1.4-2.2 21.3-2.2 21.3s6.2-20.6 10-18.6c3.6 2-12 58.3-28 66.8Z"/><path fill="#DD7C75" d="M110.2 182.2c-.2 3.6-3.6 16.7-6.1 18 1.4-4.5 2.6-9.1 4.1-13.6.3-.6 1.5-5 2-4.4ZM117.1 186.2c-.5 5.4-1.8 12-5.6 15.8 1.4-3.8 2.7-8 3.9-12 .3-.4 1.2-4.4 1.7-3.8ZM123.6 192c.2 2-2.5 12.7-4 12.7.4-2.7 2.2-11.7 4-12.6Z"/><path fill="#F33" d="M82.7 227s25.5 13.9 28.1 14.8c0 0-37.3 106.1-70.3 102-33-4-20.2-47 4-69.3C68.6 252 82.7 227 82.7 227Z"/><path fill="#FF9BB1" d="M82.8 227a214.2 214.2 0 0 1-22.1 31.5c-10 10.4-20.6 20.6-29.2 32.3-1 1.5-2 3-2.7 4.7-1.2.4 1.9-4.6 2.2-5 9-13.8 21.4-24.9 32.2-37.1 5.7-7 11-14.7 16.2-22 0 .3 3.6-5.7 3.4-4.3Z"/><path fill="#FFBEAE" d="m210.5 242.9 20-11.7s1.6-12.3 3.3-19.2c1.8-7 10.6-15.3 8.8-18.4-1.7-3.1-11.4 1.1-16.7 14.8 0 0-11.6-19.7-14-26.7-2.5-7-4.4-13.2-6.9-13-2.4.3.5 14.8.5 14.8s-4.6-13.2-7.3-12.5c-2.6.7 0 14.5.5 15.9.4 1.3-5.3-14.8-8.4-13.5-3 1.4 2.2 21.3 2.2 21.3s-6.1-20.6-9.9-18.6c-3.7 2 11.9 58.3 28 66.8Z"/><path fill="#DD7C75" d="M205.2 182.2c.3 3.6 3.6 16.7 6.1 18-1.4-4.5-2.5-9.1-4-13.6-.4-.6-1.6-5-2.1-4.4ZM198.3 186.2c.5 5.4 1.9 12 5.7 15.8-1.4-3.8-2.7-8-4-12-.2-.4-1.2-4.4-1.7-3.8ZM191.9 192c-.2 2 2.5 12.7 4 12.7-.5-2.7-2.2-11.7-4-12.6Z"/><path fill="#F33" d="M232.7 227s-25.5 13.9-28.1 14.8c0 0 37.4 106.1 70.3 102 33-4 20.3-47-4-69.3-24.1-22.4-38.2-47.5-38.2-47.5Z"/><path fill="#FF9BB1" d="M232.6 227a214.2 214.2 0 0 0 22.1 31.5c10 10.4 20.6 20.6 29.3 32.3 1 1.5 2 3 2.7 4.7 1.1.4-2-4.6-2.2-5-9-13.8-21.5-24.9-32.3-37.1-5.7-7-11-14.7-16.2-22 0 .3-3.6-5.7-3.4-4.3Z"/><path fill="#FFCC5C" d="M255.7 162.5H65.2v-18.7h190.5v18.7Z"/><path fill="#F4A432" d="M107 162.5H88.5v-18.7H107v18.7ZM232.2 162.5h-18.3v-18.7h18.3v18.7Z"/><path fill="#CE691E" d="M115.9 153.8a68 68 0 0 1 28.5 1c2.8.6 5.6 1 8.4 1.1 8.5.6 17.1.2 25.6-.8 9.4-1.7 19-3.3 28.5-1.5.2 0 .2.3 0 .3l-5.7-.3c-9.7-.6-18.9 2.8-28.4 3.5-7.6.7-15.3.9-23 0-5.4-.6-10.7-2.7-16.1-3-4-.4-8-.5-12.1-.4-.8-.1-6.5.8-5.7.1Z"/><path fill="#E47E2C" d="M207.5 153.7s-9.2-7-11.6-5.3c-2.4 1.5 7 4.9 7 4.9s-8.1 7.6-4 7.2c4.7-.5 8.6-6.8 8.6-6.8ZM193.5 153.3s-9.7-5.8-11.7-4.3c-2 1.6 6.8 4.7 6.8 4.7s-6.8 7-3.3 6.8c3.6-.3 8.2-7.2 8.2-7.2ZM181 155s-7-6-9-4.6c-2 1.3 5.2 5.1 5.2 5.1s-7.7 5.6-4.8 5.4c2.8-.2 8.5-5.8 8.5-5.8ZM168.6 156.4s-7.9-7-9.9-5.4c-2 1.6 5.8 6 5.8 6s-8.2 3.7-4.4 3.7c3.7 0 8.5-4.3 8.5-4.3ZM153.2 156.9s-3.5-7-5.7-6.3c-2.2.7 2.7 5.6 2.7 5.6s-8 3.8-5 4.5c2.8.6 8-3.8 8-3.8ZM139.8 153.7s-5.5-6.7-7.7-5.6c-2.1 1.2 3.6 5.9 3.6 5.9s-9.5 2-8 3.5c1.6 1.6 12.1-3.8 12.1-3.8ZM126.9 152.6s-5-7.2-6.8-5.6c-1.8 1.6 4 6.3 4 6.3s-8.9 3.8-5.8 4.7c3 .9 8.6-5.4 8.6-5.4Z"/><path fill="#E47E2C" d="M119 153.5s-8.8-3.6-9-.2c-.3 3.3 9 .2 9 .2Z"/><path fill="#fff" d="M249.6 162.5h-2.3v-18.7h2.3v18.7ZM73 162.5h-2.4v-18.7H73v18.7Z"/><path fill="#F33" d="M34.6 219.1c0 1.4-1.1 2.5-2.5 2.5a2.4 2.4 0 0 1-2.4-2.5c0-1.3 1.1-2.4 2.4-2.4 1.4 0 2.5 1 2.5 2.4ZM62.5 180.2c0 1.3-1.1 2.4-2.4 2.4a2.4 2.4 0 0 1-2.5-2.4c0-1.4 1.1-2.5 2.5-2.5 1.3 0 2.4 1.1 2.4 2.5ZM25.1 283.6c0 1.4-1 2.5-2.4 2.5a2.4 2.4 0 0 1-2.4-2.5c0-1.3 1-2.4 2.4-2.4 1.3 0 2.4 1 2.4 2.4ZM57 151.3c0 1.3-1.1 2.4-2.4 2.4a2.4 2.4 0 0 1-2.5-2.4c0-1.4 1.1-2.5 2.5-2.5 1.3 0 2.4 1.1 2.4 2.5ZM50.4 260.8c0 1.4-1 2.5-2.4 2.5a2.4 2.4 0 0 1-2.4-2.5c0-1.4 1-2.5 2.4-2.5 1.3 0 2.4 1.1 2.4 2.5ZM90.8 239c0 1.4-1 2.5-2.4 2.5a2.4 2.4 0 0 1-2.4-2.4c0-1.4 1-2.5 2.4-2.5 1.3 0 2.4 1.1 2.4 2.5ZM80.5 283.4c0 1.4-1 2.5-2.4 2.5a2.4 2.4 0 0 1-2.4-2.5c0-1.3 1-2.4 2.4-2.4 1.3 0 2.4 1 2.4 2.4ZM42.3 327.8c0 1.3-1.1 2.4-2.5 2.4a2.4 2.4 0 0 1-2.4-2.4c0-1.4 1.1-2.5 2.4-2.5 1.4 0 2.5 1.1 2.5 2.5ZM280 219.1c0 1.4 1.1 2.5 2.5 2.5 1.3 0 2.4-1.1 2.4-2.5 0-1.3-1-2.4-2.4-2.4a2.4 2.4 0 0 0-2.4 2.4ZM252.1 180.2c0 1.3 1.1 2.4 2.5 2.4 1.3 0 2.4-1 2.4-2.4s-1.1-2.5-2.4-2.5a2.4 2.4 0 0 0-2.5 2.5ZM289.5 283.6c0 1.4 1 2.5 2.4 2.5s2.4-1.1 2.4-2.5c0-1.3-1-2.4-2.4-2.4a2.4 2.4 0 0 0-2.4 2.4ZM257.6 151.3c0 1.3 1.1 2.4 2.5 2.4 1.3 0 2.4-1 2.4-2.4s-1.1-2.5-2.4-2.5a2.4 2.4 0 0 0-2.5 2.5ZM264.2 260.8c0 1.4 1.1 2.5 2.5 2.5 1.3 0 2.4-1.1 2.4-2.5s-1.1-2.5-2.4-2.5a2.4 2.4 0 0 0-2.5 2.5ZM223.8 239c0 1.4 1 2.5 2.4 2.5 1.3 0 2.4-1 2.4-2.4s-1-2.5-2.4-2.5a2.4 2.4 0 0 0-2.4 2.5ZM234.1 283.4c0 1.4 1.1 2.5 2.4 2.5 1.4 0 2.5-1.1 2.5-2.5 0-1.3-1.1-2.4-2.5-2.4a2.4 2.4 0 0 0-2.4 2.4ZM272.4 327.8c0 1.3 1 2.4 2.4 2.4 1.3 0 2.4-1 2.4-2.4s-1-2.5-2.4-2.5a2.4 2.4 0 0 0-2.4 2.5Z"/><path fill="#6969B3" d="M145.4 217.7s-8-9.2-16.7-5.5c0 0 5.7 7.2 16.7 5.5ZM168.7 209c-1.3-3.2-8.5 2.4-8.5 2.4.3-5-1.6-6.6-2.5-7a.6.6 0 0 0-.6 0c-.9.4-2.8 2-2.5 7-13.9-10.6-9 7 2.8 7 5.4.5 12.6-6.4 11.3-9.5ZM169.4 217.7s8-9.2 16.7-5.5c0 0-5.7 7.2-16.7 5.5Z"/><path fill="#fff" d="M145.6 205a1.8 1.8 0 1 1-3.5 0c0-1 .7-1.8 1.7-1.8s1.8.8 1.8 1.8ZM173 205c0 1-.8 1.8-1.7 1.8-1 0-1.8-.8-1.8-1.8s.8-1.8 1.8-1.8 1.7.8 1.7 1.8Z"/><path fill="#DA7E64" d="M292.5 196.5c.8.6 3.5 4 3 5-1.1 0-2.2-.8-2.9-1.7-.5-.6-1.3-3.3-.1-3.3ZM53.7 119.2c-2.5-4.2 6.1-10.6 2.8-5-.6.7-2 5.6-2.8 5ZM61 118.2c-1.2-1.5 1-5.2 2.6-4.3 0 1.2-1.3 4.7-2.6 4.3ZM66.7 108c.1-1.5 3.3-3.3 4.2-2-.4 1.3-3.3 3.5-4.2 2ZM149 53.3c1 .3 4.3 2.4 4.2 3.3-1 .5-2.2.2-3.1-.4-.7-.3-2.2-2.6-1-3ZM157.2 52.9c1.4-.5 7 1 3.3 2-1.4.4-3-.1-3.5-1.7 0-.1 0-.3.2-.3ZM196 45.8c2.2-.6 5.7 2 5.3 4-1.2-.2-6-2.8-5.2-4ZM203.8 45.8c1.4 0 3.7 3 2.7 4-1.4-.1-4-2.8-2.7-4ZM193 5.8c1.6-1.5 5.8-1 6.4 1-1.2.5-6.4.5-6.4-1ZM277 142.3c1.8.2 3 4.3 1.3 5-.8-.9-2.6-4.3-1.4-5ZM282.1 140.7c2.3.4 2.5 5.1.3 5.2l-.5-2.5c0-.6-.5-2.6.2-2.7ZM270.3 128.4c4.8.3 9 12.7 4.3 6.2-.5-.9-5.4-5.8-4.3-6.2Z"/><path fill="#FF9BB1" d="M28 305.2c-.4-1.9 1-5.8 3-6.2.4 1.5-1.4 6.9-3 6.2ZM37.2 181.7c-1-1 .1-4.1 1.3-3.5.8 1.1.3 3.8-1.3 3.5ZM40.7 187c-.8-1 .4-4.3 1.8-3.9.6 1.2-.1 4.4-1.8 4ZM42.9 172.2c-.3-1.7 1.8-5.1 3.4-4.8.3 1.4-1.9 5.7-3.4 4.8ZM266.6 174c1.4.2 3.1 3.5 1.9 4.3-1.3-.4-3.4-3.4-1.9-4.3ZM274.6 180.7c1.4.1 1.8 2.7.5 2.9-1.3-.3-2-2.4-.5-2.9ZM268.4 167.7c1.5.3 3.4 3.7 2.3 4.8-1.4-.4-3.8-3.8-2.3-4.8ZM277.1 295c1.6 0 4.2 3 3.3 4.3-1.4-.1-4.6-3.2-3.3-4.4ZM286.4 299c1.4.2 2.7 3.6 1.4 4.2-1.3-.4-3-3.5-1.4-4.2ZM21 310.3c-1.3-2-.2-4.8 1.7-6 .2 0 .4 0 .4.3 0 1.2-.8 5.9-2.1 5.7Z"/></svg>